<svg id="Layer_1" data-name="Layer 1" xmlns="http://www.w3.org/2000/svg" viewBox="0 0 343 56.87"><defs><style>.cls-1{fill:#231f20;}</style></defs><path class="cls-1" d="M72.88,44.66h-5V15.54h5Z"/><path class="cls-1" d="M89.88,33.86v10.8h-5V15.54H96a11.27,11.27,0,0,1,7.75,2.54,8.54,8.54,0,0,1,2.87,6.73,8.25,8.25,0,0,1-2.81,6.67q-2.8,2.39-7.87,2.38Zm0-4.08H96a6,6,0,0,0,4.12-1.27,4.66,4.66,0,0,0,1.42-3.67,5,5,0,0,0-1.44-3.77,5.56,5.56,0,0,0-4-1.45H89.88Z"/><path class="cls-1" d="M130.28,32.32H118.56V44.66H113.5V15.54H132v4.08H118.56v8.66h11.72Z"/><path class="cls-1" d="M153.88,37.16a3.51,3.51,0,0,0-1.35-3,16.38,16.38,0,0,0-4.87-2.1,23.7,23.7,0,0,1-5.6-2.36q-4-2.5-4-6.52a7.11,7.11,0,0,1,2.87-5.8,11.64,11.64,0,0,1,7.45-2.28,12.68,12.68,0,0,1,5.42,1.12,8.92,8.92,0,0,1,3.74,3.19A8.16,8.16,0,0,1,158.92,24h-5a4.57,4.57,0,0,0-1.43-3.57,5.9,5.9,0,0,0-4.09-1.29,6.23,6.23,0,0,0-3.85,1.06,3.54,3.54,0,0,0-1.37,3,3.2,3.2,0,0,0,1.48,2.67A17.18,17.18,0,0,0,149.5,28a22.2,22.2,0,0,1,5.46,2.3,8.74,8.74,0,0,1,3,3,7.71,7.71,0,0,1,1,3.91,6.92,6.92,0,0,1-2.79,5.79,12.12,12.12,0,0,1-7.57,2.15,14.26,14.26,0,0,1-5.81-1.17,9.83,9.83,0,0,1-4.12-3.23,8,8,0,0,1-1.47-4.8h5.06a4.73,4.73,0,0,0,1.64,3.84,7.18,7.18,0,0,0,4.7,1.36,6.27,6.27,0,0,0,4-1.07A3.44,3.44,0,0,0,153.88,37.16Z"/><path class="cls-1" d="M191.87,37.16a3.51,3.51,0,0,0-1.35-3,16.38,16.38,0,0,0-4.87-2.1,23.52,23.52,0,0,1-5.6-2.36q-4-2.5-4-6.52a7.11,7.11,0,0,1,2.87-5.8,11.62,11.62,0,0,1,7.45-2.28,12.68,12.68,0,0,1,5.42,1.12,8.92,8.92,0,0,1,3.74,3.19A8.23,8.23,0,0,1,196.91,24h-5a4.57,4.57,0,0,0-1.43-3.57,5.92,5.92,0,0,0-4.09-1.29,6.21,6.21,0,0,0-3.85,1.06,3.54,3.54,0,0,0-1.37,3,3.18,3.18,0,0,0,1.48,2.67A17.05,17.05,0,0,0,187.49,28a22.37,22.37,0,0,1,5.46,2.3,8.74,8.74,0,0,1,3,3,7.71,7.71,0,0,1,1,3.91,6.92,6.92,0,0,1-2.79,5.79,12.12,12.12,0,0,1-7.57,2.15,14.23,14.23,0,0,1-5.81-1.17,9.76,9.76,0,0,1-4.12-3.23,8,8,0,0,1-1.47-4.8h5.06a4.73,4.73,0,0,0,1.64,3.84,7.16,7.16,0,0,0,4.7,1.36,6.27,6.27,0,0,0,4-1.07A3.44,3.44,0,0,0,191.87,37.16Z"/><path class="cls-1" d="M221.49,31.66h-12v9h14v4h-19V15.54h18.9v4.08H209.53v8h12Z"/><path class="cls-1" d="M248,37.88H236.69l-2.36,6.78h-5.26l11-29.12h4.53l11,29.12h-5.28Zm-9.85-4.08h8.43l-4.22-12.08Z"/><path class="cls-1" d="M272.71,33.46h-5.64v11.2H262V15.54h10.23c3.36,0,6,.76,7.78,2.26a8,8,0,0,1,2.74,6.55,8.17,8.17,0,0,1-1.41,4.89,8.87,8.87,0,0,1-3.93,3L284,44.4v.26h-5.42Zm-5.64-4.08h5.2a5.78,5.78,0,0,0,4-1.29,4.5,4.5,0,0,0,1.44-3.53,4.79,4.79,0,0,0-1.33-3.62,5.67,5.67,0,0,0-4-1.32h-5.34Z"/><path class="cls-1" d="M312.46,35.18A10.49,10.49,0,0,1,309,42.45a11.73,11.73,0,0,1-8,2.61,11.36,11.36,0,0,1-6.13-1.65,10.85,10.85,0,0,1-4.09-4.69,17.09,17.09,0,0,1-1.49-7.06V28.94a16.93,16.93,0,0,1,1.46-7.26A11,11,0,0,1,295,16.84a11.67,11.67,0,0,1,6.3-1.7A11.24,11.24,0,0,1,309,17.75a10.9,10.9,0,0,1,3.42,7.39h-5a7.21,7.21,0,0,0-1.83-4.53,6.07,6.07,0,0,0-4.31-1.39,5.93,5.93,0,0,0-5.07,2.41q-1.77,2.41-1.81,7.08v2.58c0,3.15.57,5.55,1.69,7.21A5.62,5.62,0,0,0,301,41a6.55,6.55,0,0,0,4.48-1.34,6.94,6.94,0,0,0,1.9-4.46Z"/><path class="cls-1" d="M343,44.66h-5V31.74h-13V44.66h-5.05V15.54h5.05V27.66h13V15.54h5Z"/><path d="M27.12,5,46.68,18,45.13,41.52,24,51.92,4.45,38.83,6,15.35,27.12,5M27.45,0,1.88,12.59,0,41,23.69,56.87,49.25,44.28l1.88-28.43L27.45,0Z"/></svg>